<svg width="128" height="128" viewBox="0 0 128 128" fill="none" xmlns="http://www.w3.org/2000/svg">
<g clip-path="url(#clip0_10935_1290)">
<path d="M64 128C99.3462 128 128 99.3462 128 64C128 28.6538 99.3462 0 64 0C28.6538 0 0 28.6538 0 64C0 99.3462 28.6538 128 64 128Z" fill="url(#paint0_linear_10935_1290)"/>
<path d="M81.4985 31.0015C90.0578 31.0022 96.9968 37.9412 96.9976 46.5005V68.0396C96.997 76.5994 90.0562 83.5403 81.4966 83.5405H59.9624C58.8369 83.5404 57.9246 82.6269 57.9243 81.5015V74.0776L81.4985 74.0806C81.5289 74.0805 81.56 74.079 81.5903 74.0776L82.0073 74.0581C82.0429 74.0564 82.0793 74.0529 82.1147 74.0493C82.3266 74.0278 82.5287 73.9965 82.7144 73.9585C83.1028 73.8789 83.4853 73.7615 83.8491 73.6079L83.8521 73.605C84.2281 73.4457 84.5701 73.2529 84.8745 73.0474C85.0122 72.9544 85.1758 72.838 85.3413 72.7017L85.772 72.3091C86.1805 71.8992 86.5284 71.4317 86.8052 70.9233C87.272 70.0652 87.5361 69.081 87.5366 68.0425V46.5024C87.5365 40.1817 84.5287 34.5626 79.8667 30.9995L81.4985 31.0015Z" fill="white"/>
<path d="M53.922 81.5007C53.9222 82.1142 54.0133 82.7195 54.1925 83.2957C54.2539 83.4931 54.3237 83.6819 54.3966 83.8542C54.5558 84.2301 54.7492 84.5706 54.9552 84.8757C55.0479 85.013 55.1628 85.1762 55.2999 85.3425L55.6896 85.7712C56.1 86.1809 56.5691 86.5289 57.0792 86.8064C57.7616 87.1775 58.5278 87.4253 59.3439 87.5085C59.5606 87.5307 59.7682 87.5388 59.9601 87.5388H81.4991C87.8202 87.5387 93.437 84.5274 97.0001 79.865V81.5007C96.9991 90.0595 90.0609 96.9976 81.5021 96.9988H59.963C51.4029 96.9984 44.462 90.0578 44.462 81.4978V59.9646C44.462 58.8391 45.3743 57.9257 46.5001 57.9255L53.922 57.9226V81.5007Z" fill="white"/>
<path d="M68.0393 31.0034C76.5994 31.0038 83.5402 37.9445 83.5403 46.5044V68.0386C83.54 69.1639 82.625 70.0794 81.4993 70.0796L74.0774 70.0767V46.5044C74.0774 46.0443 74.0289 45.588 73.928 45.146L73.8098 44.7065L73.6018 44.1509L73.3401 43.6128C73.2463 43.4429 73.1469 43.2816 73.0442 43.1294C72.9515 42.9921 72.8363 42.8286 72.6995 42.6626C72.206 42.0647 71.5995 41.5683 70.9202 41.1987C70.2383 40.8278 69.4738 40.5771 68.6584 40.4937C68.4414 40.4715 68.2314 40.4663 68.0393 40.4663H46.5002C40.18 40.4664 34.5625 43.4728 30.9993 48.1343V46.5044C30.9993 37.9442 37.94 31.0035 46.5002 31.0034L68.0393 31.0034Z" fill="white"/>
<path d="M68.0361 44.4617C69.1618 44.4617 70.0771 45.378 70.0771 46.5037V53.9226L46.5029 53.9255C46.3104 53.9255 46.1024 53.9315 45.8896 53.9529L45.8867 53.9558C45.2779 54.0176 44.6934 54.1689 44.1523 54.3972C43.7759 54.5566 43.4316 54.7521 43.127 54.9578L42.6602 55.3035C41.7671 56.0405 41.0861 57.0328 40.7324 58.1707C40.6151 58.5484 40.5334 58.9415 40.4922 59.3445C40.4701 59.5614 40.4649 59.7707 40.4648 59.9626V81.5027C40.4652 87.8228 43.4734 93.4377 48.1348 97.0007L46.5029 97.0037C37.943 97.0036 31.0026 90.0625 31.002 81.5027L31.002 59.9626C31.0027 51.4028 37.9432 44.4617 46.5029 44.4617H68.0361Z" fill="white"/>
</g>
<defs>
<linearGradient id="paint0_linear_10935_1290" x1="128" y1="128" x2="-11.0718" y2="114.559" gradientUnits="userSpaceOnUse">
<stop stop-color="#2E68FF"/>
<stop offset="1" stop-color="#487BFF"/>
</linearGradient>
<clipPath id="clip0_10935_1290">
<rect width="128" height="128" fill="white"/>
</clipPath>
</defs>
</svg>
