<svg width="32" height="32" viewBox="0 0 32 32" fill="none" xmlns="http://www.w3.org/2000/svg">
<g clip-path="url(#clip0_43_351)">
<path d="M32 0H0V32H32V0Z" fill="url(#paint0_linear_43_351)"/>
<path d="M20.3745 7.7506C22.5143 7.75078 24.2491 9.4853 24.2493 11.6251V17.0099C24.2492 19.1499 22.514 20.8851 20.374 20.8851H14.9905C14.7091 20.8851 14.4811 20.657 14.481 20.3756V18.5194L20.3745 18.5202C20.3821 18.5201 20.3899 18.5198 20.3975 18.5194L20.5017 18.5145C20.5106 18.5141 20.5197 18.5135 20.5286 18.5126C20.5815 18.5072 20.632 18.4991 20.6785 18.4896C20.7756 18.4697 20.8712 18.4404 20.9622 18.402L20.9629 18.4013C21.0569 18.3614 21.1424 18.3132 21.2185 18.2619C21.2529 18.2386 21.2938 18.2095 21.3352 18.1754L21.4429 18.0775C21.5451 17.975 21.632 17.858 21.7012 17.7308C21.8179 17.5163 21.8839 17.2703 21.884 17.0106V11.6259C21.884 10.0456 21.1321 8.64068 19.9666 7.74988L20.3745 7.7506Z" fill="white"/>
<path d="M13.4805 20.3752C13.4805 20.5286 13.5033 20.6799 13.5481 20.824C13.5635 20.8733 13.5809 20.9205 13.5991 20.9636C13.6389 21.0576 13.6873 21.1427 13.7388 21.219C13.762 21.2533 13.7907 21.2941 13.825 21.3357L13.9224 21.4429C14.025 21.5453 14.1423 21.6323 14.2698 21.7017C14.4404 21.7945 14.6319 21.8564 14.836 21.8772C14.8901 21.8827 14.942 21.8848 14.99 21.8848H20.3748C21.955 21.8847 23.3592 21.1321 24.25 19.9666V20.3752C24.2498 22.515 22.5152 24.2495 20.3755 24.2498H14.9907C12.8507 24.2497 11.1152 22.5145 11.1152 20.3745V14.9912C11.1152 14.7098 11.3436 14.4815 11.625 14.4814L13.4805 14.481V20.3752Z" fill="white"/>
<path d="M17.0098 7.75085C19.1498 7.75095 20.885 9.48613 20.885 11.6261V17.0097C20.885 17.291 20.6562 17.5199 20.3748 17.5199L18.5193 17.5192V11.6261C18.5193 11.5111 18.5072 11.397 18.4819 11.2865L18.4524 11.1766L18.4004 11.0377L18.335 10.9032C18.3115 10.8607 18.2867 10.8204 18.261 10.7824C18.2378 10.748 18.209 10.7072 18.1748 10.6657C18.0514 10.5162 17.8998 10.3921 17.73 10.2997C17.5595 10.207 17.3684 10.1445 17.1646 10.1237C17.1103 10.1181 17.0578 10.1166 17.0098 10.1166H11.625C10.045 10.1166 8.64056 10.8682 7.74976 12.0336V11.6261C7.74981 9.48605 9.48496 7.75088 11.625 7.75085H17.0098Z" fill="white"/>
<path d="M17.009 11.1154C17.2905 11.1154 17.5193 11.3444 17.5193 11.6259V13.4806L11.6257 13.4813C11.5776 13.4813 11.5256 13.4828 11.4724 13.4882L11.4717 13.4889C11.3195 13.5044 11.1733 13.5422 11.0381 13.5993C10.944 13.6391 10.8579 13.688 10.7817 13.7394L10.665 13.8258C10.4418 14.0101 10.2715 14.2582 10.1831 14.5426C10.1538 14.637 10.1333 14.7353 10.123 14.8361C10.1175 14.8904 10.1162 14.9428 10.1162 14.9909V20.3756C10.1163 21.9556 10.8683 23.3594 12.0337 24.2501L11.6257 24.2509C9.48574 24.2509 7.75064 22.5156 7.75049 20.3756V14.9909C7.75059 12.8508 9.48576 11.1154 11.6257 11.1154H17.009Z" fill="white"/>
</g>
<defs>
<linearGradient id="paint0_linear_43_351" x1="32" y1="32" x2="-2.76795" y2="28.6398" gradientUnits="userSpaceOnUse">
<stop stop-color="#2E68FF"/>
<stop offset="1" stop-color="#487BFF"/>
</linearGradient>
<clipPath id="clip0_43_351">
<rect width="32" height="32" fill="white"/>
</clipPath>
</defs>
</svg>
