<svg width="128" height="128" viewBox="0 0 128 128" fill="none" xmlns="http://www.w3.org/2000/svg">
<rect width="128" height="128" fill="url(#paint0_linear_10935_1289)"/>
<path d="M81.4984 31.0024C90.0577 31.0031 96.9966 37.9412 96.9974 46.5005V68.0396C96.997 76.5995 90.0562 83.5403 81.4965 83.5405H59.9623C58.8369 83.5404 57.9246 82.6278 57.9242 81.5024V74.0776L81.4984 74.0806C81.5288 74.0805 81.5598 74.079 81.5902 74.0776L82.0072 74.0581C82.0427 74.0564 82.0792 74.0539 82.1146 74.0503C82.3264 74.0287 82.5285 73.9965 82.7142 73.9585C83.1027 73.8789 83.4851 73.7615 83.849 73.6079L83.8519 73.605C84.228 73.4457 84.5699 73.2529 84.8744 73.0474C85.0121 72.9544 85.1757 72.838 85.3412 72.7017L85.7719 72.3101C86.1806 71.9001 86.5282 71.4319 86.8051 70.9233C87.2719 70.0651 87.5361 69.0811 87.5365 68.0425V46.5034C87.5365 40.1825 84.5287 34.5627 79.8666 30.9995L81.4984 31.0024Z" fill="white"/>
<path d="M53.9219 81.5007C53.9221 82.1142 54.0132 82.7195 54.1924 83.2957C54.2538 83.4931 54.3236 83.6819 54.3965 83.8542C54.5557 84.2301 54.749 84.5706 54.9551 84.8757C55.0478 85.013 55.1627 85.1762 55.2998 85.3425L55.6895 85.7712C56.0999 86.181 56.569 86.5289 57.0791 86.8064C57.7615 87.1776 58.5276 87.4253 59.3438 87.5085C59.5605 87.5307 59.768 87.5388 59.96 87.5388H81.499C87.8199 87.5387 93.4368 84.5282 97 79.866V81.5007C96.9991 90.0596 90.0608 96.9976 81.502 96.9988H59.9629C51.4027 96.9984 44.4609 90.0578 44.4609 81.4978V59.9646C44.4609 58.8391 45.3742 57.9257 46.5 57.9255L53.9219 57.9236V81.5007Z" fill="white"/>
<path d="M68.0392 31.0034C76.5993 31.0038 83.5401 37.9445 83.5402 46.5044V68.0386C83.5401 69.1639 82.625 70.0794 81.4992 70.0796L74.0773 70.0767V46.5044C74.0773 46.0443 74.0288 45.588 73.9279 45.146L73.8098 44.7065L73.6017 44.1509L73.34 43.6128C73.2462 43.4429 73.1469 43.2816 73.0441 43.1294C72.9514 42.9921 72.8363 42.8286 72.6994 42.6626C72.2059 42.0646 71.5995 41.5683 70.9201 41.1987C70.2382 40.8278 69.4738 40.5781 68.6584 40.4946C68.4414 40.4725 68.2314 40.4663 68.0392 40.4663H46.5002C40.18 40.4664 34.5624 43.4729 30.9992 48.1343V46.5044C30.9994 37.9442 37.94 31.0035 46.5002 31.0034L68.0392 31.0034Z" fill="white"/>
<path d="M68.0361 44.4614C69.1618 44.4615 70.077 45.3777 70.0771 46.5034V53.9224L46.5029 53.9253C46.3103 53.9253 46.1023 53.9312 45.8896 53.9526L45.8867 53.9556C45.2779 54.0174 44.6933 54.1686 44.1523 54.397C43.7758 54.5563 43.4315 54.7519 43.1269 54.9575L42.6601 55.3032C41.7671 56.0403 41.0861 57.0326 40.7324 58.1704C40.6151 58.5481 40.5333 58.9412 40.4921 59.3442C40.47 59.5614 40.4648 59.7712 40.4648 59.9634V81.5024C40.4651 87.8225 43.4733 93.4375 48.1347 97.0005L46.5029 97.0034C37.9429 97.0034 31.0025 90.0623 31.0019 81.5024L31.0019 59.9634C31.0023 51.4033 37.943 44.4615 46.5029 44.4614H68.0361Z" fill="white"/>
<defs>
<linearGradient id="paint0_linear_10935_1289" x1="128" y1="128" x2="-11.0718" y2="114.559" gradientUnits="userSpaceOnUse">
<stop stop-color="#2E68FF"/>
<stop offset="1" stop-color="#487BFF"/>
</linearGradient>
</defs>
</svg>
