<svg width="128" height="128" viewBox="0 0 128 128" fill="none" xmlns="http://www.w3.org/2000/svg">
<g clip-path="url(#clip0_10936_1569)">
<path d="M64 128C99.3462 128 128 99.3462 128 64C128 28.6538 99.3462 0 64 0C28.6538 0 0 28.6538 0 64C0 99.3462 28.6538 128 64 128Z" fill="#06070A"/>
<path d="M81.4984 31.0015C90.0577 31.0022 96.9966 37.9412 96.9974 46.5005V68.0396C96.9968 76.5994 90.0561 83.5403 81.4965 83.5405H59.9623C58.8368 83.5404 57.9245 82.6269 57.9242 81.5015V74.0776L81.4984 74.0806C81.5288 74.0805 81.5598 74.079 81.5902 74.0776L82.0072 74.0581C82.0427 74.0564 82.0792 74.0529 82.1146 74.0493C82.3264 74.0278 82.5285 73.9965 82.7142 73.9585C83.1026 73.8789 83.4852 73.7615 83.849 73.6079L83.8519 73.605C84.228 73.4457 84.5699 73.2529 84.8744 73.0474C85.0121 72.9544 85.1757 72.838 85.3412 72.7017L85.7719 72.3091C86.1804 71.8992 86.5283 71.4317 86.8051 70.9233C87.2719 70.0652 87.536 69.081 87.5365 68.0425V46.5024C87.5363 40.1817 84.5286 34.5626 79.8666 30.9995L81.4984 31.0015Z" fill="white"/>
<path d="M53.9219 81.5007C53.9221 82.1142 54.0131 82.7195 54.1924 83.2957C54.2538 83.4931 54.3236 83.6819 54.3965 83.8542C54.5557 84.2301 54.749 84.5706 54.9551 84.8757C55.0478 85.013 55.1627 85.1762 55.2998 85.3425L55.6895 85.7712C56.0999 86.1809 56.569 86.5289 57.0791 86.8064C57.7615 87.1775 58.5276 87.4253 59.3438 87.5085C59.5605 87.5307 59.768 87.5388 59.96 87.5388H81.499C87.8201 87.5387 93.4369 84.5274 97 79.865V81.5007C96.999 90.0595 90.0607 96.9976 81.502 96.9988H59.9629C51.4027 96.9984 44.4609 90.0578 44.4609 81.4978V59.9646C44.4609 58.8391 45.3742 57.9257 46.5 57.9255L53.9219 57.9226V81.5007Z" fill="white"/>
<path d="M68.0392 31.0034C76.5993 31.0038 83.5401 37.9445 83.5402 46.5044V68.0386C83.5399 69.1639 82.6249 70.0794 81.4991 70.0796L74.0773 70.0767V46.5044C74.0772 46.0443 74.0288 45.588 73.9279 45.146L73.8097 44.7065L73.6017 44.1509L73.34 43.6128C73.2462 43.4429 73.1468 43.2816 73.0441 43.1294C72.9514 42.9921 72.8362 42.8286 72.6993 42.6626C72.2058 42.0647 71.5994 41.5683 70.92 41.1987C70.2381 40.8278 69.4737 40.5771 68.6583 40.4937C68.4413 40.4715 68.2313 40.4663 68.0392 40.4663H46.5001C40.1799 40.4664 34.5623 43.4728 30.9991 48.1343V46.5044C30.9992 37.9442 37.9399 31.0035 46.5001 31.0034L68.0392 31.0034Z" fill="white"/>
<path d="M68.0361 44.4617C69.1618 44.4617 70.0781 45.378 70.0781 46.5037V53.9226L46.5029 53.9255C46.3103 53.9255 46.1024 53.9315 45.8896 53.9529L45.8867 53.9558C45.2779 54.0176 44.6934 54.1688 44.1523 54.3972C43.7761 54.5565 43.4324 54.7523 43.1279 54.9578L42.6611 55.3035C41.768 56.0406 41.0862 57.0327 40.7324 58.1707C40.6151 58.5484 40.5334 58.9415 40.4922 59.3445C40.4701 59.5614 40.4649 59.7707 40.4648 59.9626V81.5027C40.4652 87.8227 43.4734 93.4377 48.1348 97.0007L46.5029 97.0037C37.943 97.0036 31.0026 90.0625 31.002 81.5027L31.002 59.9626C31.0027 51.4028 37.9432 44.4617 46.5029 44.4617H68.0361Z" fill="white"/>
</g>
<defs>
<clipPath id="clip0_10936_1569">
<rect width="128" height="128" fill="white"/>
</clipPath>
</defs>
</svg>
